<mxfile host="app.diagrams.net" agent="Mozilla/5.0 (Windows NT 10.0; Win64; x64; rv:133.0) Gecko/20100101 Firefox/133.0" version="25.0.3">
  <diagram name="Страница — 1" id="oasWi5K7LmkfspDXlcFT">
    <mxGraphModel dx="1676" dy="1044" grid="1" gridSize="10" guides="1" tooltips="1" connect="1" arrows="1" fold="1" page="1" pageScale="1" pageWidth="827" pageHeight="1169" math="0" shadow="0">
      <root>
        <mxCell id="0" />
        <mxCell id="1" parent="0" />
        <mxCell id="DShoPivdmVsB5PxC9VVR-165" style="edgeStyle=orthogonalEdgeStyle;rounded=0;orthogonalLoop=1;jettySize=auto;html=1;" edge="1" parent="1" source="DShoPivdmVsB5PxC9VVR-166">
          <mxGeometry relative="1" as="geometry">
            <mxPoint x="504" y="640" as="targetPoint" />
          </mxGeometry>
        </mxCell>
        <mxCell id="DShoPivdmVsB5PxC9VVR-166" value="Начало" style="ellipse;whiteSpace=wrap;html=1;" vertex="1" parent="1">
          <mxGeometry x="444" y="430" width="120" height="80" as="geometry" />
        </mxCell>
        <mxCell id="DShoPivdmVsB5PxC9VVR-167" value="" style="endArrow=none;dashed=1;html=1;rounded=0;" edge="1" parent="1">
          <mxGeometry width="50" height="50" relative="1" as="geometry">
            <mxPoint x="504" y="580" as="sourcePoint" />
            <mxPoint x="640" y="580" as="targetPoint" />
          </mxGeometry>
        </mxCell>
        <mxCell id="DShoPivdmVsB5PxC9VVR-168" value="" style="endArrow=none;html=1;rounded=0;" edge="1" parent="1">
          <mxGeometry width="50" height="50" relative="1" as="geometry">
            <mxPoint x="640" y="619" as="sourcePoint" />
            <mxPoint x="640" y="539" as="targetPoint" />
          </mxGeometry>
        </mxCell>
        <mxCell id="DShoPivdmVsB5PxC9VVR-169" value="" style="endArrow=none;html=1;rounded=0;" edge="1" parent="1">
          <mxGeometry width="50" height="50" relative="1" as="geometry">
            <mxPoint x="640" y="539" as="sourcePoint" />
            <mxPoint x="710" y="539" as="targetPoint" />
          </mxGeometry>
        </mxCell>
        <mxCell id="DShoPivdmVsB5PxC9VVR-170" value="" style="endArrow=none;html=1;rounded=0;" edge="1" parent="1">
          <mxGeometry width="50" height="50" relative="1" as="geometry">
            <mxPoint x="640" y="619" as="sourcePoint" />
            <mxPoint x="710" y="619" as="targetPoint" />
            <Array as="points">
              <mxPoint x="670" y="619" />
            </Array>
          </mxGeometry>
        </mxCell>
        <mxCell id="DShoPivdmVsB5PxC9VVR-171" value="#include&amp;lt;iostream&amp;gt;" style="text;html=1;align=center;verticalAlign=middle;whiteSpace=wrap;rounded=0;" vertex="1" parent="1">
          <mxGeometry x="670" y="549" width="60" height="30" as="geometry" />
        </mxCell>
        <mxCell id="DShoPivdmVsB5PxC9VVR-172" value="using namespace std;" style="text;html=1;align=center;verticalAlign=middle;whiteSpace=wrap;rounded=0;" vertex="1" parent="1">
          <mxGeometry x="630" y="579" width="150" height="30" as="geometry" />
        </mxCell>
        <mxCell id="DShoPivdmVsB5PxC9VVR-173" style="edgeStyle=orthogonalEdgeStyle;rounded=0;orthogonalLoop=1;jettySize=auto;html=1;entryX=0.5;entryY=0;entryDx=0;entryDy=0;" edge="1" parent="1" source="DShoPivdmVsB5PxC9VVR-174" target="DShoPivdmVsB5PxC9VVR-176">
          <mxGeometry relative="1" as="geometry" />
        </mxCell>
        <mxCell id="DShoPivdmVsB5PxC9VVR-174" value="int main()" style="shape=process;whiteSpace=wrap;html=1;backgroundOutline=1;" vertex="1" parent="1">
          <mxGeometry x="444" y="640" width="120" height="60" as="geometry" />
        </mxCell>
        <mxCell id="DShoPivdmVsB5PxC9VVR-175" value="" style="edgeStyle=orthogonalEdgeStyle;rounded=0;orthogonalLoop=1;jettySize=auto;html=1;" edge="1" parent="1" source="DShoPivdmVsB5PxC9VVR-176" target="DShoPivdmVsB5PxC9VVR-178">
          <mxGeometry relative="1" as="geometry" />
        </mxCell>
        <mxCell id="DShoPivdmVsB5PxC9VVR-176" value="setlocale(LC_AL, &quot;Russian&quot;);" style="rounded=0;whiteSpace=wrap;html=1;" vertex="1" parent="1">
          <mxGeometry x="422" y="740" width="164" height="60" as="geometry" />
        </mxCell>
        <mxCell id="DShoPivdmVsB5PxC9VVR-177" value="" style="edgeStyle=orthogonalEdgeStyle;rounded=0;orthogonalLoop=1;jettySize=auto;html=1;entryX=0.5;entryY=0;entryDx=0;entryDy=0;" edge="1" parent="1" source="DShoPivdmVsB5PxC9VVR-178" target="DShoPivdmVsB5PxC9VVR-185">
          <mxGeometry relative="1" as="geometry" />
        </mxCell>
        <mxCell id="DShoPivdmVsB5PxC9VVR-178" value="int n;" style="whiteSpace=wrap;html=1;rounded=0;" vertex="1" parent="1">
          <mxGeometry x="444" y="830" width="120" height="60" as="geometry" />
        </mxCell>
        <mxCell id="DShoPivdmVsB5PxC9VVR-179" value="" style="edgeStyle=orthogonalEdgeStyle;rounded=0;orthogonalLoop=1;jettySize=auto;html=1;" edge="1" parent="1" source="DShoPivdmVsB5PxC9VVR-180" target="DShoPivdmVsB5PxC9VVR-183">
          <mxGeometry relative="1" as="geometry" />
        </mxCell>
        <mxCell id="DShoPivdmVsB5PxC9VVR-180" value="cin &amp;gt;&amp;gt; n;" style="shape=parallelogram;perimeter=parallelogramPerimeter;whiteSpace=wrap;html=1;fixedSize=1;rounded=0;" vertex="1" parent="1">
          <mxGeometry x="444" y="1014.5" width="120" height="60" as="geometry" />
        </mxCell>
        <mxCell id="DShoPivdmVsB5PxC9VVR-181" value="" style="edgeStyle=orthogonalEdgeStyle;rounded=0;orthogonalLoop=1;jettySize=auto;html=1;" edge="1" parent="1" source="DShoPivdmVsB5PxC9VVR-183" target="DShoPivdmVsB5PxC9VVR-187">
          <mxGeometry relative="1" as="geometry" />
        </mxCell>
        <mxCell id="DShoPivdmVsB5PxC9VVR-182" style="edgeStyle=orthogonalEdgeStyle;rounded=0;orthogonalLoop=1;jettySize=auto;html=1;entryX=0.5;entryY=0;entryDx=0;entryDy=0;" edge="1" parent="1" source="DShoPivdmVsB5PxC9VVR-183" target="DShoPivdmVsB5PxC9VVR-194">
          <mxGeometry relative="1" as="geometry">
            <mxPoint x="850" y="1190" as="targetPoint" />
          </mxGeometry>
        </mxCell>
        <mxCell id="DShoPivdmVsB5PxC9VVR-183" value="while(n &amp;lt; 0)" style="rhombus;whiteSpace=wrap;html=1;rounded=0;" vertex="1" parent="1">
          <mxGeometry x="426" y="1109.5" width="156" height="80" as="geometry" />
        </mxCell>
        <mxCell id="DShoPivdmVsB5PxC9VVR-184" style="edgeStyle=orthogonalEdgeStyle;rounded=0;orthogonalLoop=1;jettySize=auto;html=1;entryX=0.5;entryY=0;entryDx=0;entryDy=0;" edge="1" parent="1" source="DShoPivdmVsB5PxC9VVR-185" target="DShoPivdmVsB5PxC9VVR-180">
          <mxGeometry relative="1" as="geometry" />
        </mxCell>
        <mxCell id="DShoPivdmVsB5PxC9VVR-185" value="cout &amp;lt;&amp;lt; &quot;Введите необходимую длинну последовательности: &quot;;" style="shape=parallelogram;perimeter=parallelogramPerimeter;whiteSpace=wrap;html=1;fixedSize=1;" vertex="1" parent="1">
          <mxGeometry x="356" y="920" width="296" height="60" as="geometry" />
        </mxCell>
        <mxCell id="DShoPivdmVsB5PxC9VVR-186" value="" style="edgeStyle=orthogonalEdgeStyle;rounded=0;orthogonalLoop=1;jettySize=auto;html=1;" edge="1" parent="1" source="DShoPivdmVsB5PxC9VVR-187" target="DShoPivdmVsB5PxC9VVR-189">
          <mxGeometry relative="1" as="geometry" />
        </mxCell>
        <mxCell id="DShoPivdmVsB5PxC9VVR-187" value="cout &amp;lt;&amp;lt; &quot;Выполнен неверный ввод, введите необходимую длину последовательности повторно: &quot;;" style="shape=parallelogram;perimeter=parallelogramPerimeter;whiteSpace=wrap;html=1;fixedSize=1;rounded=0;" vertex="1" parent="1">
          <mxGeometry x="306" y="1220" width="396" height="60" as="geometry" />
        </mxCell>
        <mxCell id="DShoPivdmVsB5PxC9VVR-188" style="edgeStyle=orthogonalEdgeStyle;rounded=0;orthogonalLoop=1;jettySize=auto;html=1;exitX=0;exitY=0.5;exitDx=0;exitDy=0;" edge="1" parent="1" source="DShoPivdmVsB5PxC9VVR-189">
          <mxGeometry relative="1" as="geometry">
            <mxPoint x="500" y="1100" as="targetPoint" />
            <Array as="points">
              <mxPoint x="250" y="1340" />
              <mxPoint x="250" y="1100" />
              <mxPoint x="490" y="1100" />
            </Array>
          </mxGeometry>
        </mxCell>
        <mxCell id="DShoPivdmVsB5PxC9VVR-189" value="cin &amp;gt;&amp;gt; n;" style="shape=parallelogram;perimeter=parallelogramPerimeter;whiteSpace=wrap;html=1;fixedSize=1;rounded=0;" vertex="1" parent="1">
          <mxGeometry x="444" y="1310" width="120" height="60" as="geometry" />
        </mxCell>
        <mxCell id="DShoPivdmVsB5PxC9VVR-190" value="{" style="text;html=1;align=center;verticalAlign=middle;whiteSpace=wrap;rounded=0;" vertex="1" parent="1">
          <mxGeometry x="490" y="1189.5" width="60" height="30" as="geometry" />
        </mxCell>
        <mxCell id="DShoPivdmVsB5PxC9VVR-191" value="1" style="text;html=1;align=center;verticalAlign=middle;whiteSpace=wrap;rounded=0;" vertex="1" parent="1">
          <mxGeometry x="460" y="1189.5" width="60" height="30" as="geometry" />
        </mxCell>
        <mxCell id="DShoPivdmVsB5PxC9VVR-192" value="" style="edgeStyle=orthogonalEdgeStyle;rounded=0;orthogonalLoop=1;jettySize=auto;html=1;" edge="1" parent="1" source="DShoPivdmVsB5PxC9VVR-194" target="DShoPivdmVsB5PxC9VVR-198">
          <mxGeometry relative="1" as="geometry" />
        </mxCell>
        <mxCell id="DShoPivdmVsB5PxC9VVR-193" style="edgeStyle=orthogonalEdgeStyle;rounded=0;orthogonalLoop=1;jettySize=auto;html=1;entryX=0.5;entryY=0;entryDx=0;entryDy=0;" edge="1" parent="1" source="DShoPivdmVsB5PxC9VVR-194" target="DShoPivdmVsB5PxC9VVR-200">
          <mxGeometry relative="1" as="geometry">
            <mxPoint x="1050" y="1290" as="targetPoint" />
          </mxGeometry>
        </mxCell>
        <mxCell id="DShoPivdmVsB5PxC9VVR-194" value="for(int i = 1; i &amp;lt;= n; i++)" style="shape=hexagon;perimeter=hexagonPerimeter2;whiteSpace=wrap;html=1;fixedSize=1;" vertex="1" parent="1">
          <mxGeometry x="810" y="1189.5" width="153" height="79.5" as="geometry" />
        </mxCell>
        <mxCell id="DShoPivdmVsB5PxC9VVR-195" value="0" style="text;html=1;align=center;verticalAlign=middle;whiteSpace=wrap;rounded=0;" vertex="1" parent="1">
          <mxGeometry x="564" y="1120" width="56" height="30" as="geometry" />
        </mxCell>
        <mxCell id="DShoPivdmVsB5PxC9VVR-196" value="}" style="text;html=1;align=center;verticalAlign=middle;whiteSpace=wrap;rounded=0;" vertex="1" parent="1">
          <mxGeometry x="870" y="1159.5" width="60" height="30" as="geometry" />
        </mxCell>
        <mxCell id="DShoPivdmVsB5PxC9VVR-197" style="edgeStyle=orthogonalEdgeStyle;rounded=0;orthogonalLoop=1;jettySize=auto;html=1;entryX=0;entryY=0.5;entryDx=0;entryDy=0;exitX=0;exitY=0.5;exitDx=0;exitDy=0;" edge="1" parent="1" source="DShoPivdmVsB5PxC9VVR-198" target="DShoPivdmVsB5PxC9VVR-194">
          <mxGeometry relative="1" as="geometry">
            <Array as="points">
              <mxPoint x="750" y="1330" />
              <mxPoint x="750" y="1229" />
            </Array>
          </mxGeometry>
        </mxCell>
        <mxCell id="DShoPivdmVsB5PxC9VVR-198" value="cout &amp;lt;&amp;lt; fib(i) &amp;lt;&amp;lt; endl;" style="shape=parallelogram;perimeter=parallelogramPerimeter;whiteSpace=wrap;html=1;fixedSize=1;" vertex="1" parent="1">
          <mxGeometry x="804.75" y="1300" width="163.5" height="60" as="geometry" />
        </mxCell>
        <mxCell id="DShoPivdmVsB5PxC9VVR-199" value="1" style="text;html=1;align=center;verticalAlign=middle;whiteSpace=wrap;rounded=0;" vertex="1" parent="1">
          <mxGeometry x="870" y="1270" width="60" height="30" as="geometry" />
        </mxCell>
        <mxCell id="DShoPivdmVsB5PxC9VVR-200" value="return 0;" style="ellipse;whiteSpace=wrap;html=1;" vertex="1" parent="1">
          <mxGeometry x="1020" y="1280" width="120" height="80" as="geometry" />
        </mxCell>
        <mxCell id="DShoPivdmVsB5PxC9VVR-201" value="" style="edgeStyle=orthogonalEdgeStyle;rounded=0;orthogonalLoop=1;jettySize=auto;html=1;" edge="1" parent="1" source="DShoPivdmVsB5PxC9VVR-202" target="DShoPivdmVsB5PxC9VVR-205">
          <mxGeometry relative="1" as="geometry" />
        </mxCell>
        <mxCell id="DShoPivdmVsB5PxC9VVR-202" value="int fib(int n)" style="shape=process;whiteSpace=wrap;html=1;backgroundOutline=1;" vertex="1" parent="1">
          <mxGeometry x="964.25" y="420" width="231.5" height="60" as="geometry" />
        </mxCell>
        <mxCell id="DShoPivdmVsB5PxC9VVR-203" style="edgeStyle=orthogonalEdgeStyle;rounded=0;orthogonalLoop=1;jettySize=auto;html=1;entryX=0.5;entryY=0;entryDx=0;entryDy=0;" edge="1" parent="1" source="DShoPivdmVsB5PxC9VVR-205" target="DShoPivdmVsB5PxC9VVR-208">
          <mxGeometry relative="1" as="geometry">
            <mxPoint x="920" y="640" as="targetPoint" />
          </mxGeometry>
        </mxCell>
        <mxCell id="DShoPivdmVsB5PxC9VVR-204" style="edgeStyle=orthogonalEdgeStyle;rounded=0;orthogonalLoop=1;jettySize=auto;html=1;exitX=1;exitY=0.5;exitDx=0;exitDy=0;entryX=0.5;entryY=0;entryDx=0;entryDy=0;" edge="1" parent="1" source="DShoPivdmVsB5PxC9VVR-205" target="DShoPivdmVsB5PxC9VVR-212">
          <mxGeometry relative="1" as="geometry" />
        </mxCell>
        <mxCell id="DShoPivdmVsB5PxC9VVR-205" value="(n == 1)" style="rhombus;whiteSpace=wrap;html=1;" vertex="1" parent="1">
          <mxGeometry x="1004.25" y="520" width="151.5" height="80" as="geometry" />
        </mxCell>
        <mxCell id="DShoPivdmVsB5PxC9VVR-206" value="&lt;div&gt;if&lt;/div&gt;" style="text;html=1;align=center;verticalAlign=middle;whiteSpace=wrap;rounded=0;" vertex="1" parent="1">
          <mxGeometry x="1071.5" y="500" width="60" height="30" as="geometry" />
        </mxCell>
        <mxCell id="DShoPivdmVsB5PxC9VVR-207" value="1" style="text;html=1;align=center;verticalAlign=middle;whiteSpace=wrap;rounded=0;" vertex="1" parent="1">
          <mxGeometry x="963" y="530" width="60" height="30" as="geometry" />
        </mxCell>
        <mxCell id="DShoPivdmVsB5PxC9VVR-208" value="return 0;" style="ellipse;whiteSpace=wrap;html=1;" vertex="1" parent="1">
          <mxGeometry x="860" y="630" width="120" height="80" as="geometry" />
        </mxCell>
        <mxCell id="DShoPivdmVsB5PxC9VVR-209" value="else if" style="text;html=1;align=center;verticalAlign=middle;whiteSpace=wrap;rounded=0;" vertex="1" parent="1">
          <mxGeometry x="1158.25" y="530" width="60" height="30" as="geometry" />
        </mxCell>
        <mxCell id="DShoPivdmVsB5PxC9VVR-210" value="" style="edgeStyle=orthogonalEdgeStyle;rounded=0;orthogonalLoop=1;jettySize=auto;html=1;" edge="1" parent="1" source="DShoPivdmVsB5PxC9VVR-212" target="DShoPivdmVsB5PxC9VVR-213">
          <mxGeometry relative="1" as="geometry" />
        </mxCell>
        <mxCell id="DShoPivdmVsB5PxC9VVR-211" value="" style="edgeStyle=orthogonalEdgeStyle;rounded=0;orthogonalLoop=1;jettySize=auto;html=1;" edge="1" parent="1" source="DShoPivdmVsB5PxC9VVR-212" target="DShoPivdmVsB5PxC9VVR-214">
          <mxGeometry relative="1" as="geometry" />
        </mxCell>
        <mxCell id="DShoPivdmVsB5PxC9VVR-212" value="(n == 2)" style="rhombus;whiteSpace=wrap;html=1;" vertex="1" parent="1">
          <mxGeometry x="1191" y="630" width="140" height="80" as="geometry" />
        </mxCell>
        <mxCell id="DShoPivdmVsB5PxC9VVR-213" value="return 1;" style="ellipse;whiteSpace=wrap;html=1;" vertex="1" parent="1">
          <mxGeometry x="1044.75" y="720" width="113.5" height="80" as="geometry" />
        </mxCell>
        <mxCell id="DShoPivdmVsB5PxC9VVR-214" value="return fib(n - 1) + fib(n - 2);" style="ellipse;whiteSpace=wrap;html=1;" vertex="1" parent="1">
          <mxGeometry x="1360" y="720" width="190" height="80" as="geometry" />
        </mxCell>
        <mxCell id="DShoPivdmVsB5PxC9VVR-215" value="else" style="text;html=1;align=center;verticalAlign=middle;whiteSpace=wrap;rounded=0;" vertex="1" parent="1">
          <mxGeometry x="1320" y="640" width="60" height="30" as="geometry" />
        </mxCell>
        <mxCell id="DShoPivdmVsB5PxC9VVR-216" value="1" style="text;html=1;align=center;verticalAlign=middle;whiteSpace=wrap;rounded=0;" vertex="1" parent="1">
          <mxGeometry x="1150" y="640" width="60" height="30" as="geometry" />
        </mxCell>
        <mxCell id="DShoPivdmVsB5PxC9VVR-217" value="}" style="text;html=1;align=center;verticalAlign=middle;whiteSpace=wrap;rounded=0;" vertex="1" parent="1">
          <mxGeometry x="1071.5" y="1240" width="60" height="30" as="geometry" />
        </mxCell>
        <mxCell id="DShoPivdmVsB5PxC9VVR-218" value="{" style="text;html=1;align=center;verticalAlign=middle;whiteSpace=wrap;rounded=0;" vertex="1" parent="1">
          <mxGeometry x="490" y="710" width="60" height="30" as="geometry" />
        </mxCell>
        <mxCell id="DShoPivdmVsB5PxC9VVR-219" value="}" style="text;html=1;align=center;verticalAlign=middle;whiteSpace=wrap;rounded=0;" vertex="1" parent="1">
          <mxGeometry x="1050" y="1370" width="60" height="30" as="geometry" />
        </mxCell>
        <mxCell id="DShoPivdmVsB5PxC9VVR-220" value="{" style="text;html=1;align=center;verticalAlign=middle;whiteSpace=wrap;rounded=0;" vertex="1" parent="1">
          <mxGeometry x="1060" y="480" width="60" height="30" as="geometry" />
        </mxCell>
        <mxCell id="DShoPivdmVsB5PxC9VVR-221" value="}" style="text;html=1;align=center;verticalAlign=middle;whiteSpace=wrap;rounded=0;" vertex="1" parent="1">
          <mxGeometry x="1425" y="820" width="60" height="30" as="geometry" />
        </mxCell>
        <mxCell id="DShoPivdmVsB5PxC9VVR-222" value="0" style="text;html=1;align=center;verticalAlign=middle;whiteSpace=wrap;rounded=0;" vertex="1" parent="1">
          <mxGeometry x="950" y="1200" width="60" height="30" as="geometry" />
        </mxCell>
      </root>
    </mxGraphModel>
  </diagram>
</mxfile>
